<?xml version="1.0" encoding="UTF-8"?>
<svg width="128" height="128" viewBox="0 0 128 128" fill="none" xmlns="http://www.w3.org/2000/svg">
  <!-- Subtle rounded background to pop on both light and dark themes -->
  <defs>
    <linearGradient id="bg" x1="0" y1="0" x2="128" y2="128" gradientUnits="userSpaceOnUse">
      <stop offset="0" stop-color="#0F2238"/>
      <stop offset="1" stop-color="#153251"/>
    </linearGradient>
    <filter id="glow" x="-50%" y="-50%" width="200%" height="200%">
      <feGaussianBlur stdDeviation="1.6" result="blur"/>
      <feMerge>
        <feMergeNode in="blur"/>
        <feMergeNode in="SourceGraphic"/>
      </feMerge>
    </filter>
  </defs>

  <!-- Background -->
  <rect x="2" y="2" width="124" height="124" rx="16" fill="url(#bg)"/>
  <rect x="2" y="2" width="124" height="124" rx="16" stroke="#0A1726" stroke-opacity="0.65" stroke-width="2" fill="none"/>

  <!-- Brick rows (bold colors, clear separation) -->
  <!-- Row 1 -->
  <g stroke="rgba(0,0,0,0.35)" stroke-width="2" stroke-linejoin="round">
    <rect x="14" y="20" width="20" height="12" rx="3" fill="#FF4D4D"/>
    <rect x="38" y="20" width="20" height="12" rx="3" fill="#FF8C42"/>
    <rect x="62" y="20" width="20" height="12" rx="3" fill="#FFD34E"/>
    <rect x="86" y="20" width="20" height="12" rx="3" fill="#2ECC71"/>
  </g>
  <!-- Row 2 -->
  <g stroke="rgba(0,0,0,0.35)" stroke-width="2" stroke-linejoin="round">
    <rect x="14" y="36" width="20" height="12" rx="3" fill="#3498DB"/>
    <rect x="38" y="36" width="20" height="12" rx="3" fill="#FF4D4D"/>
    <rect x="62" y="36" width="20" height="12" rx="3" fill="#FF8C42"/>
    <rect x="86" y="36" width="20" height="12" rx="3" fill="#FFD34E"/>
  </g>
  <!-- Row 3 (slightly staggered) -->
  <g stroke="rgba(0,0,0,0.35)" stroke-width="2" stroke-linejoin="round">
    <rect x="24" y="52" width="20" height="12" rx="3" fill="#2ECC71"/>
    <rect x="48" y="52" width="20" height="12" rx="3" fill="#3498DB"/>
    <rect x="72" y="52" width="20" height="12" rx="3" fill="#FF4D4D"/>
  </g>

  <!-- Paddle (brand-accented, high contrast) -->
  <g filter="url(#glow)">
    <rect x="40" y="94" width="48" height="10" rx="5" fill="#007ACC"/>
    <rect x="40" y="94" width="48" height="3" rx="1.5" fill="#49A7FF" opacity="0.9"/>
  </g>

  <!-- Ball with subtle glow -->
  <g filter="url(#glow)">
    <circle cx="80" cy="78" r="6" fill="#FFFFFF"/>
    <circle cx="77.5" cy="75.5" r="2" fill="#E8F7FF"/>
  </g>



  <!-- Subtle top sheen to add depth -->
  <rect x="4" y="4" width="120" height="20" rx="14" fill="#FFFFFF" opacity="0.05"/>
</svg>


